<svg width="1100" height="1100">
<line x1="650" y1="750" x2="550" y2="750" stroke="red" stroke-width="2" marker-start="url(#Arrow1Sstart)"/>
<line x1="550" y1="650" x2="550" y2="750" stroke="green" stroke-width="2" marker-start="url(#Arrow1Sstart)"/>
<text x="550" y="750">{a}</text>
<line x1="550" y1="450" x2="550" y2="550" stroke="red" stroke-width="2" marker-start="url(#Arrow1Sstart)"/>
<line x1="450" y1="550" x2="550" y2="550" stroke="green" stroke-width="2" marker-start="url(#Arrow1Sstart)"/>
<text x="550" y="550">{b}</text>
<line x1="350" y1="350" x2="450" y2="350" stroke="red" stroke-width="2" marker-start="url(#Arrow1Sstart)"/>
<line x1="450" y1="450" x2="450" y2="350" stroke="green" stroke-width="2" marker-start="url(#Arrow1Sstart)"/>
<text x="450" y="350">{c}</text>
<circle cx="750" cy="550" r="5" stroke="purple" fill="purple" stroke-width="1"/>
<circle cx="750" cy="550" r="5" stroke="brown" fill="brown" stroke-width="1"/>
<circle cx="750" cy="550" r="5" stroke="orange" fill="orange" stroke-width="1"/>
<line x1="505" y1="460" x2="550" y2="550" stroke="brown" stroke-width="2" marker-start="url(#Arrow1Sstart)"/>
<line x1="450" y1="550" x2="550" y2="750" stroke="purple" stroke-width="2" marker-start="url(#Arrow1Sstart)"/>
<line x1="350" y1="150" x2="450" y2="350" stroke="orange" stroke-width="2" marker-start="url(#Arrow1Sstart)"/>

    <defs>
    <marker
        style="overflow:visible"
        id="Arrow1Sstart"
        refX="0.0"
        refY="0.0"
        orient="auto">
        <path
            transform="scale(0.2) translate(6,0)\"
            style="fill-rule:evenodd;fill:context-stroke;stroke:context-stroke;stroke-width:1.0pt"
            d="M 0.0,0.0 L 5.0,-5.0 L -12.5,0.0 L 5.0,5.0 L 0.0,0.0 z "
            />
        </marker>
    </defs>

    <g>
    
    </g>
    
</svg>
